<svg xmlns="http://www.w3.org/2000/svg" viewBox="0 0 24 24" id="fruit">
  <defs>
    <linearGradient id="a" x1="18.586" x2="5.414" y1="18.847" y2="5.675" gradientUnits="userSpaceOnUse">
      <stop offset="0" stop-color="#eb595a"></stop>
      <stop offset="1" stop-color="#f18875"></stop>
    </linearGradient>
  </defs>
  <g>
    <path fill="#fff" d="M12,23.5c-5.953,0-10.57-5.682-10.57-10.57,0-3.994.92-6.659,2.812-8.149A5.928,5.928,0,0,1,8.006,3.562a10.02,10.02,0,0,1,1.673.153A4.2,4.2,0,0,1,11.947.731,2.237,2.237,0,0,1,12.93.5a2.2,2.2,0,0,1,1.99,3.128,9.163,9.163,0,0,1,1.074-.066,5.926,5.926,0,0,1,3.764,1.219c1.892,1.49,2.812,4.155,2.812,8.149C22.57,17.818,17.953,23.5,12,23.5Z"></path>
    <path fill="url(#a)" d="M18.83,5.96c-1.781-1.4-4.118-.837-5.665-.463-.223.054-.438.105-.63.146-.124-.7-.183-1.876.707-2.322a.7.7,0,1,0-.624-1.248A3.209,3.209,0,0,0,11.1,5.56L10.835,5.5c-1.547-.374-3.883-.938-5.665.463C3.663,7.146,2.93,9.426,2.93,12.93,2.93,17.038,6.976,22,12,22s9.07-4.962,9.07-9.07C21.07,9.426,20.337,7.146,18.83,5.96ZM8.283,9.79c-1.349.523-.854,2.788-.849,2.811a.7.7,0,0,1-.525.835.694.694,0,0,1-.834-.522c-.3-1.283-.273-3.659,1.7-4.425a.7.7,0,0,1,.5,1.3Z"></path>
  </g>
</svg>
